<?xml version="1.0" encoding="UTF-8" standalone="no"?>
<!DOCTYPE svg PUBLIC "-//W3C//DTD SVG 1.1//EN" "http://www.w3.org/Graphics/SVG/1.1/DTD/svg11.dtd">
<svg width="100%" height="100%" viewBox="0 0 850 221" version="1.1" xmlns="http://www.w3.org/2000/svg" xmlns:xlink="http://www.w3.org/1999/xlink" xml:space="preserve" xmlns:serif="http://www.serif.com/" style="fill-rule:evenodd;clip-rule:evenodd;stroke-linejoin:round;stroke-miterlimit:2;">
    <g transform="matrix(4.16667,0,0,4.16667,0,0)">
        <g>
            <path d="M56.017,12.533L50.66,22.584L61.345,22.584L56.017,12.533ZM44.584,29.496L55.124,9.912L56.996,9.912L67.595,29.496L64.917,29.496L62.296,24.542L49.681,24.542L47.089,29.496L44.584,29.496Z" style="fill:rgb(91,186,71);fill-rule:nonzero;"/>
            <path d="M51.493,22.084L60.514,22.084L56.016,13.598L51.493,22.084ZM62.177,23.084L49.827,23.084L56.018,11.467L62.177,23.084ZM65.218,28.996L66.756,28.996L56.699,10.412L55.423,10.412L45.421,28.996L46.787,28.996L49.379,24.042L62.597,24.042L65.218,28.996ZM68.434,29.996L64.615,29.996L61.994,25.042L49.984,25.042L47.392,29.996L43.747,29.996L54.825,9.412L57.294,9.412L68.434,29.996Z" style="fill:rgb(91,186,71);fill-rule:nonzero;"/>
            <path d="M84.644,23.88L93.428,9.912L95.876,9.912L95.876,29.496L93.428,29.496L93.428,14.001L84.99,27.365L84.154,27.365L75.514,14.001L75.514,29.496L73.066,29.496L73.066,9.912L75.514,9.912L84.644,23.88Z" style="fill:rgb(91,186,71);fill-rule:nonzero;"/>
            <path d="M93.928,28.996L95.376,28.996L95.376,10.412L93.704,10.412L84.652,24.806L75.244,10.412L73.566,10.412L73.566,28.996L75.014,28.996L75.014,12.307L84.427,26.865L84.714,26.865L93.928,12.273L93.928,28.996ZM96.376,29.996L92.928,29.996L92.928,15.73L85.265,27.865L83.883,27.865L76.014,15.696L76.014,29.996L72.566,29.996L72.566,9.412L75.785,9.412L84.636,22.953L93.152,9.412L96.376,9.412L96.376,29.996Z" style="fill:rgb(91,186,71);fill-rule:nonzero;"/>
            <path d="M102.212,11.957L102.212,9.912L122.574,9.912L122.574,11.957L113.617,11.957L113.617,29.496L111.169,29.496L111.169,11.957L102.212,11.957Z" style="fill:rgb(91,186,71);fill-rule:nonzero;"/>
            <path d="M111.669,28.996L113.117,28.996L113.117,11.457L122.074,11.457L122.074,10.412L102.712,10.412L102.712,11.457L111.669,11.457L111.669,28.996ZM114.117,29.996L110.669,29.996L110.669,12.457L101.712,12.457L101.712,9.412L123.074,9.412L123.074,12.457L114.117,12.457L114.117,29.996Z" style="fill:rgb(91,186,71);fill-rule:nonzero;"/>
            <path d="M128.91,9.912L146.91,9.912L146.91,11.957L131.358,11.957L131.358,18.235L140.948,18.235L140.948,20.193L131.358,20.193L131.358,27.365L147.054,27.365L147.054,29.496L128.91,29.496L128.91,9.912Z" style="fill:rgb(91,186,71);fill-rule:nonzero;"/>
            <path d="M129.409,28.996L146.554,28.996L146.554,27.865L130.858,27.865L130.858,19.694L140.448,19.694L140.448,18.735L130.858,18.735L130.858,11.457L146.409,11.457L146.409,10.412L129.409,10.412L129.409,28.996ZM147.554,29.996L128.409,29.996L128.409,9.412L147.409,9.412L147.409,12.457L131.858,12.457L131.858,17.735L141.448,17.735L141.448,20.694L131.858,20.694L131.858,26.865L147.554,26.865L147.554,29.996Z" style="fill:rgb(91,186,71);fill-rule:nonzero;"/>
            <path d="M171.188,16.248L171.188,11.957L156.846,11.957L156.846,27.365L171.188,27.365L171.188,22.642L173.636,23.16L173.636,26.53C173.636,27.566 173.305,28.32 172.643,28.79C171.98,29.261 171.034,29.496 169.806,29.496L158.228,29.496C156.999,29.496 156.054,29.261 155.392,28.79C154.729,28.32 154.398,27.566 154.398,26.53L154.398,13.253C154.398,12.581 154.508,12.029 154.729,11.597C154.949,11.165 155.238,10.824 155.593,10.574C155.948,10.325 156.356,10.152 156.817,10.056C157.278,9.96 157.748,9.912 158.228,9.912L169.806,9.912C170.42,9.912 170.967,9.96 171.447,10.056C171.927,10.152 172.33,10.325 172.657,10.574C172.983,10.824 173.228,11.165 173.392,11.597C173.554,12.029 173.636,12.581 173.636,13.253L173.636,15.902L171.188,16.248Z" style="fill:rgb(91,186,71);fill-rule:nonzero;"/>
            <path d="M158.228,10.412C157.786,10.412 157.345,10.457 156.919,10.546C156.528,10.627 156.178,10.775 155.88,10.984C155.59,11.187 155.359,11.463 155.174,11.824C154.99,12.183 154.898,12.664 154.898,13.253L154.898,26.53C154.898,27.402 155.154,28.008 155.681,28.383C156.254,28.79 157.111,28.996 158.228,28.996L169.806,28.996C170.924,28.996 171.781,28.789 172.353,28.383C172.88,28.008 173.136,27.402 173.136,26.53L173.136,23.565L171.688,23.259L171.688,27.865L156.346,27.865L156.346,11.457L171.688,11.457L171.688,15.672L173.136,15.468L173.136,13.253C173.136,12.645 173.065,12.147 172.924,11.773C172.793,11.428 172.606,11.165 172.353,10.971C172.089,10.77 171.751,10.627 171.349,10.546C170.902,10.457 170.383,10.412 169.806,10.412L158.228,10.412ZM169.806,29.996L158.228,29.996C156.899,29.996 155.847,29.727 155.102,29.198C154.303,28.631 153.898,27.733 153.898,26.53L153.898,13.253C153.898,12.504 154.028,11.87 154.283,11.369C154.541,10.866 154.885,10.461 155.305,10.165C155.716,9.877 156.19,9.676 156.715,9.567C157.209,9.464 157.718,9.412 158.228,9.412L169.806,9.412C170.448,9.412 171.033,9.464 171.545,9.566C172.098,9.677 172.574,9.882 172.96,10.177C173.361,10.484 173.663,10.902 173.86,11.419C174.043,11.908 174.136,12.524 174.136,13.253L174.136,16.337L170.688,16.824L170.688,12.457L157.346,12.457L157.346,26.865L170.688,26.865L170.688,22.024L174.136,22.755L174.136,26.53C174.136,27.732 173.731,28.63 172.932,29.198C172.187,29.727 171.135,29.996 169.806,29.996Z" style="fill:rgb(91,186,71);fill-rule:nonzero;"/>
            <path d="M181.844,9.912L184.292,9.912L184.292,18.235L199.354,18.235L199.354,9.912L201.802,9.912L201.802,29.496L199.354,29.496L199.354,20.193L184.292,20.193L184.292,29.496L181.844,29.496L181.844,9.912Z" style="fill:rgb(91,186,71);fill-rule:nonzero;"/>
            <path d="M199.854,28.996L201.302,28.996L201.302,10.412L199.854,10.412L199.854,18.735L183.792,18.735L183.792,10.412L182.344,10.412L182.344,28.996L183.792,28.996L183.792,19.694L199.854,19.694L199.854,28.996ZM202.302,29.996L198.854,29.996L198.854,20.694L184.792,20.694L184.792,29.996L181.344,29.996L181.344,9.412L184.792,9.412L184.792,17.735L198.854,17.735L198.854,9.412L202.302,9.412L202.302,29.996Z" style="fill:rgb(91,186,71);fill-rule:nonzero;"/>
        </g>
        <path d="M14.898,34.361C13.912,34.361 13.153,34.283 12.622,34.128C12.09,33.973 11.825,33.725 11.825,33.384L11.825,29.012C11.825,28.791 11.913,28.609 12.09,28.467C12.267,28.324 12.498,28.212 12.784,28.13C13.068,28.048 13.396,27.991 13.766,27.959C14.135,27.928 14.513,27.912 14.898,27.912L25.226,27.912C25.719,27.912 26.158,27.928 26.543,27.959C26.928,27.991 27.252,28.048 27.514,28.13C27.776,28.212 27.972,28.324 28.103,28.467C28.234,28.609 28.3,28.791 28.3,29.012L28.3,33.384C28.3,33.725 28.034,33.973 27.502,34.128C26.971,34.283 26.212,34.361 25.226,34.361L14.898,34.361ZM36.2,9.161L35.883,3.187L3.714,3.187L3.714,26.299L36.683,26.499L36.6,19.961L40.155,21.048L40.197,25.046C40.197,26.601 39.505,27.732 38.121,28.437C36.737,29.143 34.761,29.496 32.194,29.496L8.003,29.496C5.435,29.496 3.459,29.143 2.075,28.437C0.691,27.732 0,26.601 0,25.046L0,5.131C0,4.123 0.23,3.295 0.691,2.647C1.152,1.999 1.754,1.488 2.497,1.113C3.239,0.74 4.092,0.48 5.054,0.336C6.017,0.192 7,0.12 8.003,0.12L32.194,0.12C33.477,0.12 34.621,0.192 35.624,0.336C36.626,0.48 37.469,0.74 38.151,1.113C38.833,1.488 39.345,1.999 39.686,2.647C40.026,3.295 40.197,4.123 40.197,5.131L39.963,8.164L36.2,9.161Z" style="fill:rgb(91,186,71);fill-rule:nonzero;"/>
    </g>
</svg>
